# MagicaVoxel @ Ephtracy

# group
g tree1

# material
mtllib tree1.mtl
usemtl palette

# normals
vn -1 0 0
vn 1 0 0
vn 0 0 1
vn 0 0 -1
vn 0 -1 0
vn 0 1 0

# texcoords
vt 0.794922 0.5
vt 0.865234 0.5

# verts
v -19 15 -19
v -19 15 -20
v -19 17 -19
v -19 17 -20
v -18 17 -19
v -18 17 -20
v -18 19 -19
v -18 19 -20
v -17 19 -19
v -17 19 -20
v -17 20 -19
v -17 20 -20
v -16 20 -19
v -16 20 -20
v -16 21 -19
v -16 21 -20
v -14 23 -19
v -14 23 -20
v -14 29 -19
v -14 29 -20
v -13 22 -19
v -13 22 -20
v -13 23 -19
v -13 23 -20
v -13 29 -19
v -13 29 -20
v -13 30 -19
v -13 30 -20
v -12 15 -19
v -12 15 -20
v -12 16 -19
v -12 16 -20
v -12 21 -19
v -12 21 -20
v -12 22 -19
v -12 22 -20
v -12 30 -19
v -12 30 -20
v -12 31 -19
v -12 31 -20
v -11 20 -19
v -11 20 -20
v -11 21 -19
v -11 21 -20
v -11 31 -19
v -11 31 -20
v -11 32 -19
v -11 32 -20
v -9 0 -19
v -9 0 -20
v -9 15 -19
v -9 15 -20
v -9 16 -19
v -9 16 -20
v -9 17 -19
v -9 17 -20
v -9 32 -19
v -9 32 -20
v -9 33 -19
v -9 33 -20
v -8 17 -19
v -8 17 -20
v -8 20 -19
v -8 20 -20
v -5 14 -19
v -5 14 -20
v -5 15 -19
v -5 15 -20
v -4 15 -19
v -4 15 -20
v -4 16 -19
v -4 16 -20
v -2 14 -19
v -2 14 -20
v -2 15 -19
v -2 15 -20
v -2 16 -19
v -2 16 -20
v -2 17 -19
v -2 17 -20
v -2 18 -19
v -2 18 -20
v 0 18 -19
v 0 18 -20
v 0 19 -19
v 0 19 -20
v -13 15 -19
v -13 15 -20
v -13 16 -19
v -13 16 -20
v -12 17 -19
v -12 17 -20
v -12 21 -19
v -12 21 -20
v -10 16 -19
v -10 16 -20
v -10 17 -19
v -10 17 -20
v -7 5 -19
v -7 5 -20
v -7 11 -19
v -7 11 -20
v -6 4 -19
v -6 4 -20
v -6 5 -19
v -6 5 -20
v -6 11 -19
v -6 11 -20
v -6 12 -19
v -6 12 -20
v -6 14 -19
v -6 14 -20
v -6 17 -19
v -6 17 -20
v -5 2 -19
v -5 2 -20
v -5 4 -19
v -5 4 -20
v -5 12 -19
v -5 12 -20
v -5 13 -19
v -5 13 -20
v -5 17 -19
v -5 17 -20
v -5 20 -19
v -5 20 -20
v -4 1 -19
v -4 1 -20
v -4 2 -19
v -4 2 -20
v -4 13 -19
v -4 13 -20
v -4 14 -19
v -4 14 -20
v -3 14 -19
v -3 14 -20
v -3 15 -19
v -3 15 -20
v -3 32 -19
v -3 32 -20
v -3 33 -19
v -3 33 -20
v -2 0 -19
v -2 0 -20
v -2 1 -19
v -2 1 -20
v -2 20 -19
v -2 20 -20
v -2 21 -19
v -2 21 -20
v -1 14 -19
v -1 14 -20
v -1 15 -19
v -1 15 -20
v -1 31 -19
v -1 31 -20
v -1 32 -19
v -1 32 -20
v 0 21 -19
v 0 21 -20
v 0 23 -19
v 0 23 -20
v 0 30 -19
v 0 30 -20
v 0 31 -19
v 0 31 -20
v 1 23 -19
v 1 23 -20
v 1 25 -19
v 1 25 -20
v 1 27 -19
v 1 27 -20
v 1 30 -19
v 1 30 -20
v 2 15 -19
v 2 15 -20
v 2 16 -19
v 2 16 -20
v 2 18 -19
v 2 18 -20
v 2 19 -19
v 2 19 -20
v 2 25 -19
v 2 25 -20
v 2 27 -19
v 2 27 -20
v 3 16 -19
v 3 16 -20
v 3 18 -19
v 3 18 -20
v -19 15 -19
v -19 17 -19
v -18 17 -19
v -18 19 -19
v -17 19 -19
v -17 20 -19
v -16 16 -19
v -16 18 -19
v -16 20 -19
v -16 21 -19
v -14 17 -19
v -14 18 -19
v -14 23 -19
v -14 29 -19
v -13 15 -19
v -13 16 -19
v -13 22 -19
v -13 23 -19
v -13 29 -19
v -13 30 -19
v -12 15 -19
v -12 16 -19
v -12 17 -19
v -12 21 -19
v -12 22 -19
v -12 30 -19
v -12 31 -19
v -11 20 -19
v -11 21 -19
v -11 31 -19
v -11 32 -19
v -10 16 -19
v -10 17 -19
v -9 0 -19
v -9 15 -19
v -9 16 -19
v -9 17 -19
v -9 24 -19
v -9 25 -19
v -9 32 -19
v -9 33 -19
v -8 17 -19
v -8 20 -19
v -8 21 -19
v -7 5 -19
v -7 11 -19
v -7 21 -19
v -7 24 -19
v -6 4 -19
v -6 5 -19
v -6 11 -19
v -6 12 -19
v -6 14 -19
v -6 17 -19
v -6 25 -19
v -6 27 -19
v -5 2 -19
v -5 4 -19
v -5 12 -19
v -5 13 -19
v -5 14 -19
v -5 15 -19
v -5 17 -19
v -5 20 -19
v -5 26 -19
v -5 27 -19
v -5 28 -19
v -4 1 -19
v -4 2 -19
v -4 13 -19
v -4 14 -19
v -4 15 -19
v -4 16 -19
v -4 26 -19
v -4 28 -19
v -3 14 -19
v -3 15 -19
v -3 32 -19
v -3 33 -19
v -2 0 -19
v -2 1 -19
v -2 14 -19
v -2 15 -19
v -2 16 -19
v -2 17 -19
v -2 18 -19
v -2 20 -19
v -2 21 -19
v -1 14 -19
v -1 15 -19
v -1 16 -19
v -1 31 -19
v -1 32 -19
v 0 16 -19
v 0 17 -19
v 0 18 -19
v 0 19 -19
v 0 21 -19
v 0 23 -19
v 0 30 -19
v 0 31 -19
v 1 23 -19
v 1 25 -19
v 1 27 -19
v 1 30 -19
v 2 15 -19
v 2 16 -19
v 2 18 -19
v 2 19 -19
v 2 25 -19
v 2 27 -19
v 3 16 -19
v 3 18 -19
v -19 15 -20
v -19 17 -20
v -18 17 -20
v -18 19 -20
v -17 19 -20
v -17 20 -20
v -16 16 -20
v -16 18 -20
v -16 20 -20
v -16 21 -20
v -14 17 -20
v -14 18 -20
v -14 23 -20
v -14 29 -20
v -13 15 -20
v -13 16 -20
v -13 22 -20
v -13 23 -20
v -13 29 -20
v -13 30 -20
v -12 15 -20
v -12 16 -20
v -12 17 -20
v -12 21 -20
v -12 22 -20
v -12 30 -20
v -12 31 -20
v -11 20 -20
v -11 21 -20
v -11 31 -20
v -11 32 -20
v -10 16 -20
v -10 17 -20
v -9 0 -20
v -9 15 -20
v -9 16 -20
v -9 17 -20
v -9 24 -20
v -9 25 -20
v -9 32 -20
v -9 33 -20
v -8 17 -20
v -8 20 -20
v -8 21 -20
v -7 5 -20
v -7 11 -20
v -7 21 -20
v -7 24 -20
v -6 4 -20
v -6 5 -20
v -6 11 -20
v -6 12 -20
v -6 14 -20
v -6 17 -20
v -6 25 -20
v -6 27 -20
v -5 2 -20
v -5 4 -20
v -5 12 -20
v -5 13 -20
v -5 14 -20
v -5 15 -20
v -5 17 -20
v -5 20 -20
v -5 26 -20
v -5 27 -20
v -5 28 -20
v -4 1 -20
v -4 2 -20
v -4 13 -20
v -4 14 -20
v -4 15 -20
v -4 16 -20
v -4 26 -20
v -4 28 -20
v -3 14 -20
v -3 15 -20
v -3 32 -20
v -3 33 -20
v -2 0 -20
v -2 1 -20
v -2 14 -20
v -2 15 -20
v -2 16 -20
v -2 17 -20
v -2 18 -20
v -2 20 -20
v -2 21 -20
v -1 14 -20
v -1 15 -20
v -1 16 -20
v -1 31 -20
v -1 32 -20
v 0 16 -20
v 0 17 -20
v 0 18 -20
v 0 19 -20
v 0 21 -20
v 0 23 -20
v 0 30 -20
v 0 31 -20
v 1 23 -20
v 1 25 -20
v 1 27 -20
v 1 30 -20
v 2 15 -20
v 2 16 -20
v 2 18 -20
v 2 19 -20
v 2 25 -20
v 2 27 -20
v 3 16 -20
v 3 18 -20
v -9 0 -19
v -2 0 -19
v -9 0 -20
v -2 0 -20
v -7 11 -19
v -6 11 -19
v -7 11 -20
v -6 11 -20
v -6 12 -19
v -5 12 -19
v -6 12 -20
v -5 12 -20
v -5 13 -19
v -4 13 -19
v -5 13 -20
v -4 13 -20
v -4 14 -19
v -3 14 -19
v -2 14 -19
v -1 14 -19
v -4 14 -20
v -3 14 -20
v -2 14 -20
v -1 14 -20
v -19 15 -19
v -13 15 -19
v -12 15 -19
v -9 15 -19
v -3 15 -19
v -2 15 -19
v -1 15 -19
v 2 15 -19
v -19 15 -20
v -13 15 -20
v -12 15 -20
v -9 15 -20
v -3 15 -20
v -2 15 -20
v -1 15 -20
v 2 15 -20
v -13 16 -19
v -12 16 -19
v 2 16 -19
v 3 16 -19
v -13 16 -20
v -12 16 -20
v 2 16 -20
v 3 16 -20
v -6 17 -19
v -5 17 -19
v -6 17 -20
v -5 17 -20
v -11 20 -19
v -8 20 -19
v -5 20 -19
v -2 20 -19
v -11 20 -20
v -8 20 -20
v -5 20 -20
v -2 20 -20
v -12 21 -19
v -11 21 -19
v -2 21 -19
v 0 21 -19
v -12 21 -20
v -11 21 -20
v -2 21 -20
v 0 21 -20
v -13 22 -19
v -12 22 -19
v -13 22 -20
v -12 22 -20
v -14 23 -19
v -13 23 -19
v 0 23 -19
v 1 23 -19
v -14 23 -20
v -13 23 -20
v 0 23 -20
v 1 23 -20
v 1 25 -19
v 2 25 -19
v 1 25 -20
v 2 25 -20
v -4 1 -19
v -2 1 -19
v -4 1 -20
v -2 1 -20
v -5 2 -19
v -4 2 -19
v -5 2 -20
v -4 2 -20
v -6 4 -19
v -5 4 -19
v -6 4 -20
v -5 4 -20
v -7 5 -19
v -6 5 -19
v -7 5 -20
v -6 5 -20
v -6 14 -19
v -5 14 -19
v -6 14 -20
v -5 14 -20
v -5 15 -19
v -4 15 -19
v -5 15 -20
v -4 15 -20
v -10 16 -19
v -9 16 -19
v -4 16 -19
v -2 16 -19
v -10 16 -20
v -9 16 -20
v -4 16 -20
v -2 16 -20
v -19 17 -19
v -18 17 -19
v -12 17 -19
v -10 17 -19
v -9 17 -19
v -8 17 -19
v -19 17 -20
v -18 17 -20
v -12 17 -20
v -10 17 -20
v -9 17 -20
v -8 17 -20
v -2 18 -19
v 0 18 -19
v 2 18 -19
v 3 18 -19
v -2 18 -20
v 0 18 -20
v 2 18 -20
v 3 18 -20
v -18 19 -19
v -17 19 -19
v 0 19 -19
v 2 19 -19
v -18 19 -20
v -17 19 -20
v 0 19 -20
v 2 19 -20
v -17 20 -19
v -16 20 -19
v -17 20 -20
v -16 20 -20
v -16 21 -19
v -12 21 -19
v -16 21 -20
v -12 21 -20
v 1 27 -19
v 2 27 -19
v 1 27 -20
v 2 27 -20
v -14 29 -19
v -13 29 -19
v -14 29 -20
v -13 29 -20
v -13 30 -19
v -12 30 -19
v 0 30 -19
v 1 30 -19
v -13 30 -20
v -12 30 -20
v 0 30 -20
v 1 30 -20
v -12 31 -19
v -11 31 -19
v -1 31 -19
v 0 31 -19
v -12 31 -20
v -11 31 -20
v -1 31 -20
v 0 31 -20
v -11 32 -19
v -9 32 -19
v -3 32 -19
v -1 32 -19
v -11 32 -20
v -9 32 -20
v -3 32 -20
v -1 32 -20
v -9 33 -19
v -3 33 -19
v -9 33 -20
v -3 33 -20

# faces
f 3/1/1 2/1/1 1/1/1
f 4/1/1 2/1/1 3/1/1
f 7/1/1 6/1/1 5/1/1
f 8/1/1 6/1/1 7/1/1
f 11/1/1 10/1/1 9/1/1
f 12/1/1 10/1/1 11/1/1
f 15/1/1 14/1/1 13/1/1
f 16/1/1 14/1/1 15/1/1
f 19/1/1 18/1/1 17/1/1
f 20/1/1 18/1/1 19/1/1
f 23/1/1 22/1/1 21/1/1
f 24/1/1 22/1/1 23/1/1
f 27/1/1 26/1/1 25/1/1
f 28/1/1 26/1/1 27/1/1
f 31/2/1 30/2/1 29/2/1
f 32/2/1 30/2/1 31/2/1
f 35/1/1 34/1/1 33/1/1
f 36/1/1 34/1/1 35/1/1
f 39/1/1 38/1/1 37/1/1
f 40/1/1 38/1/1 39/1/1
f 43/1/1 42/1/1 41/1/1
f 44/1/1 42/1/1 43/1/1
f 47/1/1 46/1/1 45/1/1
f 48/1/1 46/1/1 47/1/1
f 51/2/1 50/2/1 49/2/1
f 52/2/1 50/2/1 51/2/1
f 55/2/1 54/2/1 53/2/1
f 56/2/1 54/2/1 55/2/1
f 59/1/1 58/1/1 57/1/1
f 60/1/1 58/1/1 59/1/1
f 63/2/1 62/2/1 61/2/1
f 64/2/1 62/2/1 63/2/1
f 67/2/1 66/2/1 65/2/1
f 68/2/1 66/2/1 67/2/1
f 71/2/1 70/2/1 69/2/1
f 72/2/1 70/2/1 71/2/1
f 75/1/1 74/1/1 73/1/1
f 76/1/1 74/1/1 75/1/1
f 79/2/1 78/2/1 77/2/1
f 80/2/1 78/2/1 79/2/1
f 81/1/1 80/1/1 79/1/1
f 82/1/1 80/1/1 81/1/1
f 85/1/1 84/1/1 83/1/1
f 86/1/1 84/1/1 85/1/1
f 87/1/2 88/1/2 89/1/2
f 89/1/2 88/1/2 90/1/2
f 91/1/2 92/1/2 93/1/2
f 93/1/2 92/1/2 94/1/2
f 95/2/2 96/2/2 97/2/2
f 97/2/2 96/2/2 98/2/2
f 99/2/2 100/2/2 101/2/2
f 101/2/2 100/2/2 102/2/2
f 103/2/2 104/2/2 105/2/2
f 105/2/2 104/2/2 106/2/2
f 107/2/2 108/2/2 109/2/2
f 109/2/2 108/2/2 110/2/2
f 111/2/2 112/2/2 113/2/2
f 113/2/2 112/2/2 114/2/2
f 115/2/2 116/2/2 117/2/2
f 117/2/2 116/2/2 118/2/2
f 119/2/2 120/2/2 121/2/2
f 121/2/2 120/2/2 122/2/2
f 123/2/2 124/2/2 125/2/2
f 125/2/2 124/2/2 126/2/2
f 127/2/2 128/2/2 129/2/2
f 129/2/2 128/2/2 130/2/2
f 131/2/2 132/2/2 133/2/2
f 133/2/2 132/2/2 134/2/2
f 135/2/2 136/2/2 137/2/2
f 137/2/2 136/2/2 138/2/2
f 139/1/2 140/1/2 141/1/2
f 141/1/2 140/1/2 142/1/2
f 143/2/2 144/2/2 145/2/2
f 145/2/2 144/2/2 146/2/2
f 147/1/2 148/1/2 149/1/2
f 149/1/2 148/1/2 150/1/2
f 151/1/2 152/1/2 153/1/2
f 153/1/2 152/1/2 154/1/2
f 155/1/2 156/1/2 157/1/2
f 157/1/2 156/1/2 158/1/2
f 159/1/2 160/1/2 161/1/2
f 161/1/2 160/1/2 162/1/2
f 163/1/2 164/1/2 165/1/2
f 165/1/2 164/1/2 166/1/2
f 167/1/2 168/1/2 169/1/2
f 169/1/2 168/1/2 170/1/2
f 171/1/2 172/1/2 173/1/2
f 173/1/2 172/1/2 174/1/2
f 175/1/2 176/1/2 177/1/2
f 177/1/2 176/1/2 178/1/2
f 179/1/2 180/1/2 181/1/2
f 181/1/2 180/1/2 182/1/2
f 183/1/2 184/1/2 185/1/2
f 185/1/2 184/1/2 186/1/2
f 187/1/2 188/1/2 189/1/2
f 189/1/2 188/1/2 190/1/2
f 193/1/3 192/1/3 191/1/3
f 195/1/3 194/1/3 193/1/3
f 197/1/3 193/1/3 191/1/3
f 197/1/3 196/1/3 195/1/3
f 197/1/3 195/1/3 193/1/3
f 198/1/3 196/1/3 197/1/3
f 199/1/3 196/1/3 198/1/3
f 201/2/3 198/2/3 197/2/3
f 202/1/3 200/1/3 199/1/3
f 202/2/3 198/2/3 201/2/3
f 202/1/3 199/1/3 198/1/3
f 205/1/3 197/1/3 191/1/3
f 206/2/3 201/2/3 197/2/3
f 206/1/3 197/1/3 205/1/3
f 208/1/3 204/1/3 203/1/3
f 209/1/3 204/1/3 208/1/3
f 212/2/3 201/2/3 206/2/3
f 213/1/3 202/1/3 201/1/3
f 213/2/3 201/2/3 212/2/3
f 214/1/3 200/1/3 202/1/3
f 214/1/3 202/1/3 213/1/3
f 215/1/3 209/1/3 208/1/3
f 215/1/3 210/1/3 209/1/3
f 215/1/3 208/1/3 207/1/3
f 216/1/3 210/1/3 215/1/3
f 219/1/3 217/1/3 216/1/3
f 219/1/3 216/1/3 215/1/3
f 219/1/3 215/1/3 214/1/3
f 220/1/3 217/1/3 219/1/3
f 222/2/3 212/2/3 211/2/3
f 222/2/3 213/2/3 212/2/3
f 223/2/3 213/2/3 222/2/3
f 225/2/3 222/2/3 211/2/3
f 226/2/3 222/2/3 225/2/3
f 228/1/3 221/1/3 220/1/3
f 228/1/3 220/1/3 219/1/3
f 228/1/3 219/1/3 218/1/3
f 229/1/3 221/1/3 228/1/3
f 230/1/3 221/1/3 229/1/3
f 232/2/3 227/2/3 226/2/3
f 232/2/3 226/2/3 225/2/3
f 232/2/3 225/2/3 224/2/3
f 233/1/3 228/1/3 218/1/3
f 234/1/3 228/1/3 233/1/3
f 235/2/3 232/2/3 224/2/3
f 235/2/3 233/2/3 232/2/3
f 235/2/3 234/2/3 233/2/3
f 236/2/3 234/2/3 235/2/3
f 237/1/3 228/1/3 234/1/3
f 237/2/3 234/2/3 236/2/3
f 238/2/3 229/2/3 228/2/3
f 238/1/3 228/1/3 237/1/3
f 239/2/3 235/2/3 224/2/3
f 240/2/3 235/2/3 239/2/3
f 241/2/3 237/2/3 236/2/3
f 241/2/3 238/2/3 237/2/3
f 242/2/3 238/2/3 241/2/3
f 243/2/3 238/2/3 242/2/3
f 244/2/3 238/2/3 243/2/3
f 245/1/3 231/1/3 230/1/3
f 245/2/3 238/2/3 244/2/3
f 245/1/3 230/1/3 229/1/3
f 245/2/3 229/2/3 238/2/3
f 246/1/3 231/1/3 245/1/3
f 247/2/3 239/2/3 224/2/3
f 248/2/3 239/2/3 247/2/3
f 249/2/3 243/2/3 242/2/3
f 250/2/3 243/2/3 249/2/3
f 251/2/3 243/2/3 250/2/3
f 253/2/3 246/2/3 245/2/3
f 253/2/3 245/2/3 244/2/3
f 254/2/3 246/2/3 253/2/3
f 255/2/3 246/2/3 254/2/3
f 256/1/3 231/1/3 246/1/3
f 256/2/3 246/2/3 255/2/3
f 257/1/3 231/1/3 256/1/3
f 258/2/3 247/2/3 224/2/3
f 259/2/3 247/2/3 258/2/3
f 260/2/3 252/2/3 251/2/3
f 260/2/3 251/2/3 250/2/3
f 261/2/3 252/2/3 260/2/3
f 262/2/3 252/2/3 261/2/3
f 264/1/3 255/1/3 254/1/3
f 264/2/3 257/2/3 256/2/3
f 264/2/3 256/2/3 255/2/3
f 265/1/3 231/1/3 257/1/3
f 265/2/3 257/2/3 264/2/3
f 266/2/3 263/2/3 262/2/3
f 266/2/3 262/2/3 261/2/3
f 267/2/3 263/2/3 266/2/3
f 268/1/3 231/1/3 265/1/3
f 268/1/3 265/1/3 264/1/3
f 269/1/3 231/1/3 268/1/3
f 270/2/3 258/2/3 224/2/3
f 271/2/3 258/2/3 270/2/3
f 273/2/3 263/2/3 267/2/3
f 274/2/3 263/2/3 273/2/3
f 277/1/3 264/1/3 254/1/3
f 277/1/3 268/1/3 264/1/3
f 278/1/3 268/1/3 277/1/3
f 279/1/3 273/1/3 272/1/3
f 280/2/3 275/2/3 274/2/3
f 280/1/3 273/1/3 279/1/3
f 280/2/3 274/2/3 273/2/3
f 281/2/3 275/2/3 280/2/3
f 282/1/3 268/1/3 278/1/3
f 283/1/3 268/1/3 282/1/3
f 284/2/3 275/2/3 281/2/3
f 284/1/3 281/1/3 280/1/3
f 285/1/3 276/1/3 275/1/3
f 285/2/3 275/2/3 284/2/3
f 286/1/3 276/1/3 285/1/3
f 288/1/3 282/1/3 278/1/3
f 289/1/3 282/1/3 288/1/3
f 290/1/3 282/1/3 289/1/3
f 291/1/3 282/1/3 290/1/3
f 292/1/3 290/1/3 289/1/3
f 293/1/3 290/1/3 292/1/3
f 294/1/3 290/1/3 293/1/3
f 295/1/3 290/1/3 294/1/3
f 296/1/3 284/1/3 280/1/3
f 296/1/3 287/1/3 286/1/3
f 296/1/3 285/1/3 284/1/3
f 296/1/3 286/1/3 285/1/3
f 297/1/3 287/1/3 296/1/3
f 298/1/3 287/1/3 297/1/3
f 299/1/3 287/1/3 298/1/3
f 300/1/3 294/1/3 293/1/3
f 301/1/3 294/1/3 300/1/3
f 302/1/3 298/1/3 297/1/3
f 303/1/3 298/1/3 302/1/3
f 304/1/4 305/1/4 306/1/4
f 306/1/4 307/1/4 308/1/4
f 304/1/4 306/1/4 310/1/4
f 308/1/4 309/1/4 310/1/4
f 306/1/4 308/1/4 310/1/4
f 310/1/4 309/1/4 311/1/4
f 311/1/4 309/1/4 312/1/4
f 310/2/4 311/2/4 314/2/4
f 312/1/4 313/1/4 315/1/4
f 314/2/4 311/2/4 315/2/4
f 311/1/4 312/1/4 315/1/4
f 304/1/4 310/1/4 318/1/4
f 310/2/4 314/2/4 319/2/4
f 318/1/4 310/1/4 319/1/4
f 316/1/4 317/1/4 321/1/4
f 321/1/4 317/1/4 322/1/4
f 319/2/4 314/2/4 325/2/4
f 314/1/4 315/1/4 326/1/4
f 325/2/4 314/2/4 326/2/4
f 315/1/4 313/1/4 327/1/4
f 326/1/4 315/1/4 327/1/4
f 321/1/4 322/1/4 328/1/4
f 322/1/4 323/1/4 328/1/4
f 320/1/4 321/1/4 328/1/4
f 328/1/4 323/1/4 329/1/4
f 329/1/4 330/1/4 332/1/4
f 328/1/4 329/1/4 332/1/4
f 327/1/4 328/1/4 332/1/4
f 332/1/4 330/1/4 333/1/4
f 324/2/4 325/2/4 335/2/4
f 325/2/4 326/2/4 335/2/4
f 335/2/4 326/2/4 336/2/4
f 324/2/4 335/2/4 338/2/4
f 338/2/4 335/2/4 339/2/4
f 333/1/4 334/1/4 341/1/4
f 332/1/4 333/1/4 341/1/4
f 331/1/4 332/1/4 341/1/4
f 341/1/4 334/1/4 342/1/4
f 342/1/4 334/1/4 343/1/4
f 339/2/4 340/2/4 345/2/4
f 338/2/4 339/2/4 345/2/4
f 337/2/4 338/2/4 345/2/4
f 331/1/4 341/1/4 346/1/4
f 346/1/4 341/1/4 347/1/4
f 337/2/4 345/2/4 348/2/4
f 345/2/4 346/2/4 348/2/4
f 346/2/4 347/2/4 348/2/4
f 348/2/4 347/2/4 349/2/4
f 347/1/4 341/1/4 350/1/4
f 349/2/4 347/2/4 350/2/4
f 341/2/4 342/2/4 351/2/4
f 350/1/4 341/1/4 351/1/4
f 337/2/4 348/2/4 352/2/4
f 352/2/4 348/2/4 353/2/4
f 349/2/4 350/2/4 354/2/4
f 350/2/4 351/2/4 354/2/4
f 354/2/4 351/2/4 355/2/4
f 355/2/4 351/2/4 356/2/4
f 356/2/4 351/2/4 357/2/4
f 343/1/4 344/1/4 358/1/4
f 357/2/4 351/2/4 358/2/4
f 342/1/4 343/1/4 358/1/4
f 351/2/4 342/2/4 358/2/4
f 358/1/4 344/1/4 359/1/4
f 337/2/4 352/2/4 360/2/4
f 360/2/4 352/2/4 361/2/4
f 355/2/4 356/2/4 362/2/4
f 362/2/4 356/2/4 363/2/4
f 363/2/4 356/2/4 364/2/4
f 358/2/4 359/2/4 366/2/4
f 357/2/4 358/2/4 366/2/4
f 366/2/4 359/2/4 367/2/4
f 367/2/4 359/2/4 368/2/4
f 359/1/4 344/1/4 369/1/4
f 368/2/4 359/2/4 369/2/4
f 369/1/4 344/1/4 370/1/4
f 337/2/4 360/2/4 371/2/4
f 371/2/4 360/2/4 372/2/4
f 364/2/4 365/2/4 373/2/4
f 363/2/4 364/2/4 373/2/4
f 373/2/4 365/2/4 374/2/4
f 374/2/4 365/2/4 375/2/4
f 367/1/4 368/1/4 377/1/4
f 369/2/4 370/2/4 377/2/4
f 368/2/4 369/2/4 377/2/4
f 370/1/4 344/1/4 378/1/4
f 377/2/4 370/2/4 378/2/4
f 375/2/4 376/2/4 379/2/4
f 374/2/4 375/2/4 379/2/4
f 379/2/4 376/2/4 380/2/4
f 378/1/4 344/1/4 381/1/4
f 377/1/4 378/1/4 381/1/4
f 381/1/4 344/1/4 382/1/4
f 337/2/4 371/2/4 383/2/4
f 383/2/4 371/2/4 384/2/4
f 380/2/4 376/2/4 386/2/4
f 386/2/4 376/2/4 387/2/4
f 367/1/4 377/1/4 390/1/4
f 377/1/4 381/1/4 390/1/4
f 390/1/4 381/1/4 391/1/4
f 385/1/4 386/1/4 392/1/4
f 387/2/4 388/2/4 393/2/4
f 392/1/4 386/1/4 393/1/4
f 386/2/4 387/2/4 393/2/4
f 393/2/4 388/2/4 394/2/4
f 391/1/4 381/1/4 395/1/4
f 395/1/4 381/1/4 396/1/4
f 394/2/4 388/2/4 397/2/4
f 393/1/4 394/1/4 397/1/4
f 388/1/4 389/1/4 398/1/4
f 397/2/4 388/2/4 398/2/4
f 398/1/4 389/1/4 399/1/4
f 391/1/4 395/1/4 401/1/4
f 401/1/4 395/1/4 402/1/4
f 402/1/4 395/1/4 403/1/4
f 403/1/4 395/1/4 404/1/4
f 402/1/4 403/1/4 405/1/4
f 405/1/4 403/1/4 406/1/4
f 406/1/4 403/1/4 407/1/4
f 407/1/4 403/1/4 408/1/4
f 393/1/4 397/1/4 409/1/4
f 399/1/4 400/1/4 409/1/4
f 397/1/4 398/1/4 409/1/4
f 398/1/4 399/1/4 409/1/4
f 409/1/4 400/1/4 410/1/4
f 410/1/4 400/1/4 411/1/4
f 411/1/4 400/1/4 412/1/4
f 406/1/4 407/1/4 413/1/4
f 413/1/4 407/1/4 414/1/4
f 410/1/4 411/1/4 415/1/4
f 415/1/4 411/1/4 416/1/4
f 419/2/5 418/2/5 417/2/5
f 420/2/5 418/2/5 419/2/5
f 423/2/5 422/2/5 421/2/5
f 424/2/5 422/2/5 423/2/5
f 427/2/5 426/2/5 425/2/5
f 428/2/5 426/2/5 427/2/5
f 431/2/5 430/2/5 429/2/5
f 432/2/5 430/2/5 431/2/5
f 437/2/5 434/2/5 433/2/5
f 438/2/5 434/2/5 437/2/5
f 439/1/5 436/1/5 435/1/5
f 440/1/5 436/1/5 439/1/5
f 449/1/5 442/1/5 441/1/5
f 450/1/5 442/1/5 449/1/5
f 451/2/5 444/2/5 443/2/5
f 452/2/5 444/2/5 451/2/5
f 453/2/5 446/2/5 445/2/5
f 454/2/5 446/2/5 453/2/5
f 455/1/5 448/1/5 447/1/5
f 456/1/5 448/1/5 455/1/5
f 461/2/5 458/2/5 457/2/5
f 462/2/5 458/2/5 461/2/5
f 463/1/5 460/1/5 459/1/5
f 464/1/5 460/1/5 463/1/5
f 467/2/5 466/2/5 465/2/5
f 468/2/5 466/2/5 467/2/5
f 473/1/5 470/1/5 469/1/5
f 474/1/5 470/1/5 473/1/5
f 475/1/5 472/1/5 471/1/5
f 476/1/5 472/1/5 475/1/5
f 481/1/5 478/1/5 477/1/5
f 482/1/5 478/1/5 481/1/5
f 483/1/5 480/1/5 479/1/5
f 484/1/5 480/1/5 483/1/5
f 487/1/5 486/1/5 485/1/5
f 488/1/5 486/1/5 487/1/5
f 493/1/5 490/1/5 489/1/5
f 494/1/5 490/1/5 493/1/5
f 495/1/5 492/1/5 491/1/5
f 496/1/5 492/1/5 495/1/5
f 499/1/5 498/1/5 497/1/5
f 500/1/5 498/1/5 499/1/5
f 501/2/6 502/2/6 503/2/6
f 503/2/6 502/2/6 504/2/6
f 505/2/6 506/2/6 507/2/6
f 507/2/6 506/2/6 508/2/6
f 509/2/6 510/2/6 511/2/6
f 511/2/6 510/2/6 512/2/6
f 513/2/6 514/2/6 515/2/6
f 515/2/6 514/2/6 516/2/6
f 517/2/6 518/2/6 519/2/6
f 519/2/6 518/2/6 520/2/6
f 521/2/6 522/2/6 523/2/6
f 523/2/6 522/2/6 524/2/6
f 525/2/6 526/2/6 529/2/6
f 529/2/6 526/2/6 530/2/6
f 527/2/6 528/2/6 531/2/6
f 531/2/6 528/2/6 532/2/6
f 533/1/6 534/1/6 539/1/6
f 539/1/6 534/1/6 540/1/6
f 535/2/6 536/2/6 541/2/6
f 541/2/6 536/2/6 542/2/6
f 537/2/6 538/2/6 543/2/6
f 543/2/6 538/2/6 544/2/6
f 545/1/6 546/1/6 549/1/6
f 549/1/6 546/1/6 550/1/6
f 547/1/6 548/1/6 551/1/6
f 551/1/6 548/1/6 552/1/6
f 553/1/6 554/1/6 557/1/6
f 557/1/6 554/1/6 558/1/6
f 555/1/6 556/1/6 559/1/6
f 559/1/6 556/1/6 560/1/6
f 561/1/6 562/1/6 563/1/6
f 563/1/6 562/1/6 564/1/6
f 565/1/6 566/1/6 567/1/6
f 567/1/6 566/1/6 568/1/6
f 569/1/6 570/1/6 571/1/6
f 571/1/6 570/1/6 572/1/6
f 573/1/6 574/1/6 575/1/6
f 575/1/6 574/1/6 576/1/6
f 577/1/6 578/1/6 581/1/6
f 581/1/6 578/1/6 582/1/6
f 579/1/6 580/1/6 583/1/6
f 583/1/6 580/1/6 584/1/6
f 585/1/6 586/1/6 589/1/6
f 589/1/6 586/1/6 590/1/6
f 587/1/6 588/1/6 591/1/6
f 591/1/6 588/1/6 592/1/6
f 593/1/6 594/1/6 597/1/6
f 597/1/6 594/1/6 598/1/6
f 595/1/6 596/1/6 599/1/6
f 599/1/6 596/1/6 600/1/6
f 601/1/6 602/1/6 603/1/6
f 603/1/6 602/1/6 604/1/6
